<!DOCTYPE svg PUBLIC "-//W3C//DTD SVG 1.1//EN" "http://www.w3.org/Graphics/SVG/1.1/DTD/svg11.dtd">
<!-- Uploaded to: SVG Repo, www.svgrepo.com, Transformed by: SVG Repo Mixer Tools -->
<svg fill="#111D3E" height="800px" width="800px" version="1.1" id="Capa_1" xmlns="http://www.w3.org/2000/svg" xmlns:xlink="http://www.w3.org/1999/xlink" viewBox="0 0 457.904 457.904" xml:space="preserve">
<g id="SVGRepo_bgCarrier" stroke-width="0"/>
<g id="SVGRepo_tracerCarrier" stroke-linecap="round" stroke-linejoin="round"/>
<g id="SVGRepo_iconCarrier"> <g> <path d="M173.845,207.443c-34.489,34.489-34.489,90.606,0,125.095c16.707,16.707,38.92,25.908,62.548,25.908 s45.841-9.201,62.548-25.908c34.488-34.489,34.488-90.606,0-125.095c-16.707-16.707-38.92-25.908-62.548-25.908 S190.551,190.736,173.845,207.443z M236.392,200.535c10.509,0,20.66,2.323,29.873,6.718l-34.797,82.689l-44.739-68.484 c0.187-0.191,0.361-0.39,0.551-0.579C200.398,207.76,217.84,200.535,236.392,200.535z M285.504,319.103 c-13.118,13.119-30.56,20.343-49.112,20.343s-35.994-7.225-49.112-20.343c-21.938-21.938-26.099-55.018-12.494-81.188 l50.551,77.382c1.764,2.701,4.764,4.305,7.951,4.305c0.285,0,0.571-0.013,0.857-0.039c3.499-0.316,6.538-2.538,7.901-5.777 l40.329-95.833c1.065,0.943,2.114,1.91,3.128,2.925C312.585,247.959,312.585,292.023,285.504,319.103z"/> <path d="M456.476,189.282l-109.73-176.97c-1.895-3.056-5.353-4.78-8.933-4.455c-3.581,0.325-6.671,2.644-7.985,5.991 L274.83,154.013c-12.237-4.042-25.176-6.142-38.438-6.142c-26.302,0-51.331,8.263-72.132,23.554l-40.444-66.987 c-1.822-3.019-5.175-4.774-8.686-4.574c-3.52,0.205-6.636,2.343-8.095,5.553l-106.18,233.6c-2.171,4.777-0.059,10.409,4.717,12.58 c1.275,0.58,2.611,0.854,3.925,0.854c3.611,0,7.063-2.07,8.654-5.571l98.719-217.185l32.799,54.325 c-47.238,47.646-47.118,124.835,0.371,172.324c23.065,23.065,53.732,35.768,86.352,35.768c22.444,0,43.962-6.014,62.717-17.279 l66.529,66.529c5.625,5.626,13.105,8.724,21.061,8.724s15.436-3.098,21.061-8.724c5.626-5.625,8.724-13.105,8.724-21.061 s-3.098-15.436-8.724-21.061l-66.559-66.559c28.043-46.894,21.894-108.689-18.458-149.042c-9.07-9.07-19.319-16.53-30.397-22.253 L340.59,38.439l99.738,160.856c1.798,2.9,4.904,4.495,8.083,4.495c1.708,0,3.439-0.461,4.998-1.427 C457.868,199.597,459.241,193.741,456.476,189.282z M394.326,412.674c2.037,2.037,3.159,4.745,3.159,7.626 c0,2.881-1.122,5.589-3.159,7.626s-4.746,3.159-7.626,3.159c-2.88,0-5.589-1.122-7.626-3.159l-64.293-64.293 c2.741-2.303,5.402-4.729,7.964-7.291c2.57-2.57,4.992-5.232,7.285-7.966L394.326,412.674z M309.309,197.074 c40.207,40.207,40.207,105.627,0,145.834c-19.477,19.477-45.372,30.203-72.917,30.203s-53.44-10.726-72.917-30.203 c-40.207-40.207-40.207-105.627,0-145.834c19.477-19.477,45.373-30.203,72.917-30.203S289.832,177.597,309.309,197.074 L309.309,197.074z"/> </g> </g>
</svg>