<?xml version="1.0" encoding="iso-8859-1"?>
<!-- Uploaded to: SVG Repo, www.svgrepo.com, Generator: SVG Repo Mixer Tools -->
<svg version="1.1" id="Layer_1" xmlns="http://www.w3.org/2000/svg" xmlns:xlink="http://www.w3.org/1999/xlink" 
	 viewBox="0 0 488.929 488.929" xml:space="preserve">
<g id="XMLID_1005_">
	<g id="XMLID_938_">
		<rect x="37.766" y="7.629" style="fill:#5EBAE7;" width="260.342" height="473.002"/>
	</g>
	<g id="XMLID_960_">
		<rect x="107.381" y="450.115" style="fill:#FFFFFF;" width="91.549" height="30.516"/>
	</g>
	<g id="XMLID_978_">
		<rect x="107.381" y="7.629" style="fill:#FFFFFF;" width="122.065" height="30.516"/>
	</g>
	<g id="XMLID_887_">
		<circle style="fill:#89CC86;" cx="168.414" cy="190.726" r="68.662"/>
	</g>
	<g id="XMLID_824_">
		<rect x="198.93" y="68.661" style="fill:#9ED6F1;" width="251.759" height="411.969"/>
	</g>
	<polygon style="fill:#FFFFFF;" points="206.559,183.098 176.043,183.098 176.043,152.581 160.785,152.581 160.785,183.098 
		130.268,183.098 130.268,198.355 160.785,198.355 160.785,228.872 176.043,228.872 176.043,198.355 206.559,198.355 	"/>
	<g id="XMLID_840_">
		<circle style="fill:#3AAA35;" cx="259.962" cy="122.065" r="15.258"/>
	</g>
	<g id="XMLID_873_">
		<circle style="fill:#3AAA35;" cx="328.624" cy="122.065" r="15.258"/>
	</g>
	<g id="XMLID_888_">
		<circle style="fill:#3AAA35;" cx="397.286" cy="122.065" r="15.258"/>
	</g>
	<g id="XMLID_892_">
		<circle style="fill:#3AAA35;" cx="259.962" cy="198.355" r="15.258"/>
	</g>
	<g id="XMLID_891_">
		<circle style="fill:#3AAA35;" cx="328.624" cy="198.355" r="15.258"/>
	</g>
	<g id="XMLID_890_">
		<circle style="fill:#3AAA35;" cx="397.286" cy="198.355" r="15.258"/>
	</g>
	<g id="XMLID_896_">
		<circle style="fill:#3AAA35;" cx="259.962" cy="274.646" r="15.258"/>
	</g>
	<g id="XMLID_894_">
		<circle style="fill:#3AAA35;" cx="328.624" cy="274.646" r="15.258"/>
	</g>
	<g id="XMLID_893_">
		<circle style="fill:#3AAA35;" cx="397.286" cy="274.646" r="15.258"/>
	</g>
	<g id="XMLID_899_">
		<circle style="fill:#3AAA35;" cx="259.962" cy="350.937" r="15.258"/>
	</g>
	<g id="XMLID_898_">
		<circle style="fill:#3AAA35;" cx="328.624" cy="350.937" r="15.258"/>
	</g>
	<g id="XMLID_897_">
		<circle style="fill:#3AAA35;" cx="397.286" cy="350.937" r="15.258"/>
	</g>
	<g id="XMLID_902_">
		<circle style="fill:#3AAA35;" cx="259.962" cy="419.598" r="15.258"/>
	</g>
	<g id="XMLID_901_">
		<circle style="fill:#3AAA35;" cx="328.624" cy="419.598" r="15.258"/>
	</g>
	<g id="XMLID_900_">
		<circle style="fill:#3AAA35;" cx="397.286" cy="419.598" r="15.258"/>
	</g>
	<g id="XMLID_330_">
		<path style="fill:#1D1D1B;" d="M259.93,148.699c-13.727,0-24.895-11.167-24.895-24.895S246.202,98.91,259.93,98.91
			s24.895,11.167,24.895,24.895S273.657,148.699,259.93,148.699z M259.93,115.506c-4.576,0-8.299,3.723-8.299,8.299
			c0,4.576,3.723,8.299,8.299,8.299s8.299-3.723,8.299-8.299S264.506,115.506,259.93,115.506z"/>
	</g>
	<g id="XMLID_332_">
		<path style="fill:#1D1D1B;" d="M326.315,148.699c-13.728,0-24.895-11.167-24.895-24.895s11.167-24.895,24.895-24.895
			s24.895,11.167,24.895,24.895S340.043,148.699,326.315,148.699z M326.315,115.506c-4.576,0-8.299,3.723-8.299,8.299
			c0,4.576,3.723,8.299,8.299,8.299s8.299-3.723,8.299-8.299S330.892,115.506,326.315,115.506z"/>
	</g>
	<g id="XMLID_333_">
		<path style="fill:#1D1D1B;" d="M392.702,148.699c-13.727,0-24.895-11.167-24.895-24.895s11.167-24.895,24.895-24.895
			s24.895,11.167,24.895,24.895S406.43,148.699,392.702,148.699z M392.702,115.506c-4.576,0-8.299,3.723-8.299,8.299
			c0,4.576,3.723,8.299,8.299,8.299s8.299-3.723,8.299-8.299S397.278,115.506,392.702,115.506z"/>
	</g>
	<g id="XMLID_336_">
		<path style="fill:#1D1D1B;" d="M259.93,223.384c-13.727,0-24.895-11.167-24.895-24.895c0-13.728,11.167-24.895,24.895-24.895
			s24.895,11.167,24.895,24.895C284.824,212.217,273.657,223.384,259.93,223.384z M259.93,190.19c-4.576,0-8.299,3.723-8.299,8.299
			c0,4.576,3.723,8.299,8.299,8.299s8.299-3.723,8.299-8.299C268.228,193.913,264.506,190.19,259.93,190.19z"/>
	</g>
	<g id="XMLID_335_">
		<path style="fill:#1D1D1B;" d="M326.315,223.384c-13.728,0-24.895-11.167-24.895-24.895c0-13.728,11.167-24.895,24.895-24.895
			s24.895,11.167,24.895,24.895C351.21,212.217,340.043,223.384,326.315,223.384z M326.315,190.19c-4.576,0-8.299,3.723-8.299,8.299
			c0,4.576,3.723,8.299,8.299,8.299s8.299-3.723,8.299-8.299C334.614,193.913,330.892,190.19,326.315,190.19z"/>
	</g>
	<g id="XMLID_334_">
		<path style="fill:#1D1D1B;" d="M392.702,223.384c-13.727,0-24.895-11.167-24.895-24.895c0-13.728,11.167-24.895,24.895-24.895
			s24.895,11.167,24.895,24.895C417.597,212.217,406.43,223.384,392.702,223.384z M392.702,190.19c-4.576,0-8.299,3.723-8.299,8.299
			c0,4.576,3.723,8.299,8.299,8.299s8.299-3.723,8.299-8.299C401.001,193.913,397.278,190.19,392.702,190.19z"/>
	</g>
	<g id="XMLID_368_">
		<path style="fill:#1D1D1B;" d="M259.93,298.068c-13.727,0-24.895-11.167-24.895-24.895s11.167-24.895,24.895-24.895
			s24.895,11.167,24.895,24.895C284.824,286.901,273.657,298.068,259.93,298.068z M259.93,264.875c-4.576,0-8.299,3.723-8.299,8.299
			c0,4.576,3.723,8.299,8.299,8.299s8.299-3.723,8.299-8.299C268.228,268.598,264.506,264.875,259.93,264.875z"/>
	</g>
	<g id="XMLID_367_">
		<path style="fill:#1D1D1B;" d="M326.315,298.068c-13.728,0-24.895-11.167-24.895-24.895s11.167-24.895,24.895-24.895
			s24.895,11.167,24.895,24.895S340.043,298.068,326.315,298.068z M326.315,264.875c-4.576,0-8.299,3.723-8.299,8.299
			c0,4.576,3.723,8.299,8.299,8.299s8.299-3.723,8.299-8.299S330.892,264.875,326.315,264.875z"/>
	</g>
	<g id="XMLID_337_">
		<path style="fill:#1D1D1B;" d="M392.702,298.068c-13.727,0-24.895-11.167-24.895-24.895s11.167-24.895,24.895-24.895
			s24.895,11.167,24.895,24.895S406.43,298.068,392.702,298.068z M392.702,264.875c-4.576,0-8.299,3.723-8.299,8.299
			c0,4.576,3.723,8.299,8.299,8.299s8.299-3.723,8.299-8.299S397.278,264.875,392.702,264.875z"/>
	</g>
	<g id="XMLID_371_">
		<path style="fill:#1D1D1B;" d="M259.93,372.753c-13.727,0-24.895-11.167-24.895-24.895s11.167-24.895,24.895-24.895
			s24.895,11.167,24.895,24.895C284.824,361.586,273.657,372.753,259.93,372.753z M259.93,339.56c-4.576,0-8.299,3.723-8.299,8.299
			s3.723,8.299,8.299,8.299s8.299-3.723,8.299-8.299S264.506,339.56,259.93,339.56z"/>
	</g>
	<g id="XMLID_370_">
		<path style="fill:#1D1D1B;" d="M326.315,372.753c-13.728,0-24.895-11.167-24.895-24.895s11.167-24.895,24.895-24.895
			s24.895,11.167,24.895,24.895S340.043,372.753,326.315,372.753z M326.315,339.56c-4.576,0-8.299,3.723-8.299,8.299
			s3.723,8.299,8.299,8.299s8.299-3.723,8.299-8.299S330.892,339.56,326.315,339.56z"/>
	</g>
	<g id="XMLID_369_">
		<path style="fill:#1D1D1B;" d="M392.702,372.753c-13.727,0-24.895-11.167-24.895-24.895s11.167-24.895,24.895-24.895
			s24.895,11.167,24.895,24.895S406.43,372.753,392.702,372.753z M392.702,339.56c-4.576,0-8.299,3.723-8.299,8.299
			s3.723,8.299,8.299,8.299s8.299-3.723,8.299-8.299S397.278,339.56,392.702,339.56z"/>
	</g>
	<g id="XMLID_375_">
		<path style="fill:#1D1D1B;" d="M259.93,447.438c-13.727,0-24.895-11.167-24.895-24.895s11.167-24.895,24.895-24.895
			s24.895,11.167,24.895,24.895C284.824,436.271,273.657,447.438,259.93,447.438z M259.93,414.244c-4.576,0-8.299,3.723-8.299,8.299
			s3.723,8.299,8.299,8.299s8.299-3.723,8.299-8.299S264.506,414.244,259.93,414.244z"/>
	</g>
	<g id="XMLID_373_">
		<path style="fill:#1D1D1B;" d="M326.315,447.438c-13.728,0-24.895-11.167-24.895-24.895s11.167-24.895,24.895-24.895
			s24.895,11.167,24.895,24.895S340.043,447.438,326.315,447.438z M326.315,414.244c-4.576,0-8.299,3.723-8.299,8.299
			s3.723,8.299,8.299,8.299s8.299-3.723,8.299-8.299S330.892,414.244,326.315,414.244z"/>
	</g>
	<g id="XMLID_372_">
		<path style="fill:#1D1D1B;" d="M392.702,447.438c-13.727,0-24.895-11.167-24.895-24.895s11.167-24.895,24.895-24.895
			s24.895,11.167,24.895,24.895S406.43,447.438,392.702,447.438z M392.702,414.244c-4.576,0-8.299,3.723-8.299,8.299
			s3.723,8.299,8.299,8.299s8.299-3.723,8.299-8.299S397.278,414.244,392.702,414.244z"/>
	</g>
	<g id="XMLID_331_">
		<rect x="76.865" y="297.533" style="fill:#FFFFFF;" width="91.549" height="15.258"/>
	</g>
	<g id="XMLID_379_">
		<rect x="76.865" y="328.05" style="fill:#1D1D1B;" width="22.887" height="15.258"/>
	</g>
	<g id="XMLID_389_">
		<rect x="115.01" y="328.05" style="fill:#1D1D1B;" width="53.404" height="15.258"/>
	</g>
	<path style="fill:#1D1D1B;" d="M304.919,57.419L305.863,0H31.091v488.26h162.453v0.669h264.294V57.419H304.919z M115.01,15.258
		h106.808v15.259H115.01V15.258z M193.544,473.002H115.01v-15.259h78.534V473.002z M99.752,442.485v30.517H46.349V15.258h53.403
		v30.517h137.323V15.258h53.276l-0.692,42.161h-96.115v61.273c-8.045-2.796-16.572-4.256-25.13-4.256
		c-42.067,0-76.291,34.224-76.291,76.291c0,42.066,34.224,76.29,76.291,76.29c8.559,0,17.086-1.459,25.13-4.255v179.724H99.752
		V442.485z M193.544,246.352c-7.892,3.581-16.327,5.407-25.13,5.407c-33.653,0-61.033-27.379-61.033-61.032
		s27.38-61.033,61.033-61.033c8.799,0,17.235,1.826,25.13,5.408V246.352z M441.242,472.333H210.14V74.015h231.102V472.333z"/>
	<g id="XMLID_391_">
		<rect x="76.865" y="366.195" style="fill:#FFFFFF;" width="15.258" height="15.258"/>
	</g>
	<g id="XMLID_392_">
		<rect x="76.865" y="396.711" style="fill:#FFFFFF;" width="15.258" height="15.258"/>
	</g>
</g>
</svg>